<svg width="20" height="20" viewBox="0 0 20 20" fill="none" xmlns="http://www.w3.org/2000/svg">
<path d="M3.33301 0.833496L8.33301 0.833496L8.33301 5.8335" stroke="black" stroke-width="1.5" stroke-linecap="round" stroke-linejoin="round"/>
<path d="M12.5003 2.92493C14.0336 3.46663 15.3493 4.49198 16.2491 5.84647C17.1489 7.20097 17.5841 8.81122 17.4892 10.4346C17.3942 12.058 16.7742 13.6065 15.7226 14.8468C14.6709 16.0871 13.2447 16.9521 11.6587 17.3113C10.0727 17.6705 8.41299 17.5045 6.92956 16.8384C5.44613 16.1722 4.21939 15.042 3.4342 13.618C2.64902 12.194 2.34792 10.5533 2.57629 8.9433C2.80466 7.33328 3.55012 5.84109 4.70034 4.6916L8.33367 0.833266" stroke="black" stroke-width="1.5" stroke-linecap="round" stroke-linejoin="round"/>
</svg>
