<svg width="16" height="4" viewBox="0 0 16 4" fill="none" xmlns="http://www.w3.org/2000/svg">
<path d="M1.703 3.091C1.37367 3.091 1.10067 2.99133 0.884 2.792C0.676 2.584 0.572 2.32833 0.572 2.025C0.572 1.72167 0.676 1.47033 0.884 1.271C1.10067 1.063 1.37367 0.959 1.703 0.959C2.02367 0.959 2.288 1.063 2.496 1.271C2.704 1.47033 2.808 1.72167 2.808 2.025C2.808 2.32833 2.704 2.584 2.496 2.792C2.288 2.99133 2.02367 3.091 1.703 3.091ZM8.07995 3.091C7.75062 3.091 7.47762 2.99133 7.26095 2.792C7.05295 2.584 6.94895 2.32833 6.94895 2.025C6.94895 1.72167 7.05295 1.47033 7.26095 1.271C7.47762 1.063 7.75062 0.959 8.07995 0.959C8.40062 0.959 8.66495 1.063 8.87295 1.271C9.08095 1.47033 9.18495 1.72167 9.18495 2.025C9.18495 2.32833 9.08095 2.584 8.87295 2.792C8.66495 2.99133 8.40062 3.091 8.07995 3.091ZM14.4569 3.091C14.1276 3.091 13.8546 2.99133 13.6379 2.792C13.4299 2.584 13.3259 2.32833 13.3259 2.025C13.3259 1.72167 13.4299 1.47033 13.6379 1.271C13.8546 1.063 14.1276 0.959 14.4569 0.959C14.7776 0.959 15.0419 1.063 15.2499 1.271C15.4579 1.47033 15.5619 1.72167 15.5619 2.025C15.5619 2.32833 15.4579 2.584 15.2499 2.792C15.0419 2.99133 14.7776 3.091 14.4569 3.091Z" fill="black"/>
</svg>
