<svg width="20" height="20" viewBox="0 0 20 20" fill="none" xmlns="http://www.w3.org/2000/svg">
<path opacity="0.1" d="M10 18.3332C14.6024 18.3332 18.3334 14.6022 18.3334 9.99984C18.3334 5.39746 14.6024 1.6665 10 1.6665C5.39765 1.6665 1.66669 5.39746 1.66669 9.99984C1.66669 14.6022 5.39765 18.3332 10 18.3332Z" fill="black"/>
<path opacity="0.8" d="M7.57501 7.49999C7.77093 6.94304 8.15764 6.47341 8.66664 6.17426C9.17564 5.87512 9.77409 5.76577 10.356 5.86558C10.9379 5.96539 11.4657 6.26792 11.8459 6.71959C12.2261 7.17126 12.4342 7.74292 12.4333 8.33332C12.4333 9.99999 9.93335 10.8333 9.93335 10.8333" stroke="black" stroke-width="1.5" stroke-linecap="round" stroke-linejoin="round"/>
<path opacity="0.8" d="M10 14.1665H10.0083" stroke="black" stroke-width="1.5" stroke-linecap="round" stroke-linejoin="round"/>
</svg>
