<svg width="165" height="50" viewBox="0 0 165 50" fill="none" xmlns="http://www.w3.org/2000/svg">
<mask id="path-1-outside-1_380_1838" maskUnits="userSpaceOnUse" x="0.656189" y="0.900635" width="164" height="31" fill="black">
<rect fill="white" x="0.656189" y="0.900635" width="164" height="31"/>
<path d="M1.85957 29.8854H8.08293V28.055C9.95401 29.438 12.4352 30.2515 14.7131 30.2515C19.8789 30.2515 23.7837 26.6314 23.7837 21.8723C23.7837 19.1878 22.4414 16.9506 21.3838 15.893C18.1705 12.6797 12.1912 11.0526 10.9302 9.7917C10.6455 9.50697 10.4421 9.01886 10.4421 8.57143C10.4421 7.51386 11.215 6.86305 12.4759 6.86305C14.3063 6.86305 15.5266 7.79859 16.3401 9.75102L16.4621 10.1171H22.6855V2.26672H16.4621V3.97509C14.8351 2.6328 12.6793 1.90063 10.3201 1.90063C5.15429 1.90063 1.65619 5.19535 1.65619 10.0764C1.65619 12.2729 2.42902 14.1033 4.17808 15.8524C7.14739 18.8217 12.0285 19.5945 13.8182 21.3842C14.347 21.913 14.5097 22.3198 14.5097 22.8486C14.5097 23.9468 13.6555 24.6383 12.3132 24.6383C10.2387 24.6383 8.93712 23.54 8.08293 21.0182H1.85957V29.8854Z"/>
<path d="M22.8024 29.8854H33.7441V23.8248H31.4663L32.6459 20.3673H39.7234L40.781 23.8248H38.3811V29.8854H52.821V23.2553H50.7872L45.4994 8.89683H47.7365V2.26672H27.8462V8.89683H30.0833L24.8768 23.2553H22.8024V29.8854ZM33.7441 16.9099L36.266 9.26291H36.3474L38.6659 16.9099H33.7441Z"/>
<path d="M51.912 29.8854H78.2291V18.8217H71.599V23.2553H65.0909V8.89683H67.6941V2.26672H51.912V8.89683H54.3932V23.2553H51.912V29.8854Z"/>
<path d="M82.0899 30.1295H90.7132L99.011 8.89683H101.045V2.26672H89.8996V8.89683H92.1775L87.9065 20.6521H87.8252L83.7576 8.89683H86.0761V2.26672H71.2296V8.89683H73.304L82.0899 30.1295Z"/>
<path d="M100.308 29.8854H126.666V21.0588H119.425V23.2553H113.161V18.7403H118.612V13.1271H113.161V8.89683H119.425V11.0933H126.666V2.26672H100.308V8.89683H102.464V23.2553H100.308V29.8854Z"/>
<path d="M126.293 29.8854H142.319V24.0688H139.391L144.068 19.4725L149.153 24.0688H146.265V29.8854H163.55V23.2553H160.784L150.9 15.1202L158.384 8.89683H162.492V2.26672H146.18V8.08332H148.539L144.471 12.1102L139.834 8.08332H142.56V2.26672H126.456V8.89683H129.385L138.455 16.2184L129.385 23.2553H126.293V29.8854Z"/>
</mask>
<path d="M1.85957 29.8854H8.08293V28.055C9.95401 29.438 12.4352 30.2515 14.7131 30.2515C19.8789 30.2515 23.7837 26.6314 23.7837 21.8723C23.7837 19.1878 22.4414 16.9506 21.3838 15.893C18.1705 12.6797 12.1912 11.0526 10.9302 9.7917C10.6455 9.50697 10.4421 9.01886 10.4421 8.57143C10.4421 7.51386 11.215 6.86305 12.4759 6.86305C14.3063 6.86305 15.5266 7.79859 16.3401 9.75102L16.4621 10.1171H22.6855V2.26672H16.4621V3.97509C14.8351 2.6328 12.6793 1.90063 10.3201 1.90063C5.15429 1.90063 1.65619 5.19535 1.65619 10.0764C1.65619 12.2729 2.42902 14.1033 4.17808 15.8524C7.14739 18.8217 12.0285 19.5945 13.8182 21.3842C14.347 21.913 14.5097 22.3198 14.5097 22.8486C14.5097 23.9468 13.6555 24.6383 12.3132 24.6383C10.2387 24.6383 8.93712 23.54 8.08293 21.0182H1.85957V29.8854Z" fill="white"/>
<path d="M22.8024 29.8854H33.7441V23.8248H31.4663L32.6459 20.3673H39.7234L40.781 23.8248H38.3811V29.8854H52.821V23.2553H50.7872L45.4994 8.89683H47.7365V2.26672H27.8462V8.89683H30.0833L24.8768 23.2553H22.8024V29.8854ZM33.7441 16.9099L36.266 9.26291H36.3474L38.6659 16.9099H33.7441Z" fill="white"/>
<path d="M51.912 29.8854H78.2291V18.8217H71.599V23.2553H65.0909V8.89683H67.6941V2.26672H51.912V8.89683H54.3932V23.2553H51.912V29.8854Z" fill="white"/>
<path d="M82.0899 30.1295H90.7132L99.011 8.89683H101.045V2.26672H89.8996V8.89683H92.1775L87.9065 20.6521H87.8252L83.7576 8.89683H86.0761V2.26672H71.2296V8.89683H73.304L82.0899 30.1295Z" fill="white"/>
<path d="M100.308 29.8854H126.666V21.0588H119.425V23.2553H113.161V18.7403H118.612V13.1271H113.161V8.89683H119.425V11.0933H126.666V2.26672H100.308V8.89683H102.464V23.2553H100.308V29.8854Z" fill="white"/>
<path d="M126.293 29.8854H142.319V24.0688H139.391L144.068 19.4725L149.153 24.0688H146.265V29.8854H163.55V23.2553H160.784L150.9 15.1202L158.384 8.89683H162.492V2.26672H146.18V8.08332H148.539L144.471 12.1102L139.834 8.08332H142.56V2.26672H126.456V8.89683H129.385L138.455 16.2184L129.385 23.2553H126.293V29.8854Z" fill="white"/>
<path d="M1.85957 29.8854H8.08293V28.055C9.95401 29.438 12.4352 30.2515 14.7131 30.2515C19.8789 30.2515 23.7837 26.6314 23.7837 21.8723C23.7837 19.1878 22.4414 16.9506 21.3838 15.893C18.1705 12.6797 12.1912 11.0526 10.9302 9.7917C10.6455 9.50697 10.4421 9.01886 10.4421 8.57143C10.4421 7.51386 11.215 6.86305 12.4759 6.86305C14.3063 6.86305 15.5266 7.79859 16.3401 9.75102L16.4621 10.1171H22.6855V2.26672H16.4621V3.97509C14.8351 2.6328 12.6793 1.90063 10.3201 1.90063C5.15429 1.90063 1.65619 5.19535 1.65619 10.0764C1.65619 12.2729 2.42902 14.1033 4.17808 15.8524C7.14739 18.8217 12.0285 19.5945 13.8182 21.3842C14.347 21.913 14.5097 22.3198 14.5097 22.8486C14.5097 23.9468 13.6555 24.6383 12.3132 24.6383C10.2387 24.6383 8.93712 23.54 8.08293 21.0182H1.85957V29.8854Z" stroke="#227300" stroke-width="1.89006" mask="url(#path-1-outside-1_380_1838)"/>
<path d="M22.8024 29.8854H33.7441V23.8248H31.4663L32.6459 20.3673H39.7234L40.781 23.8248H38.3811V29.8854H52.821V23.2553H50.7872L45.4994 8.89683H47.7365V2.26672H27.8462V8.89683H30.0833L24.8768 23.2553H22.8024V29.8854ZM33.7441 16.9099L36.266 9.26291H36.3474L38.6659 16.9099H33.7441Z" stroke="#227300" stroke-width="1.89006" mask="url(#path-1-outside-1_380_1838)"/>
<path d="M51.912 29.8854H78.2291V18.8217H71.599V23.2553H65.0909V8.89683H67.6941V2.26672H51.912V8.89683H54.3932V23.2553H51.912V29.8854Z" stroke="#227300" stroke-width="1.89006" mask="url(#path-1-outside-1_380_1838)"/>
<path d="M82.0899 30.1295H90.7132L99.011 8.89683H101.045V2.26672H89.8996V8.89683H92.1775L87.9065 20.6521H87.8252L83.7576 8.89683H86.0761V2.26672H71.2296V8.89683H73.304L82.0899 30.1295Z" stroke="#227300" stroke-width="1.89006" mask="url(#path-1-outside-1_380_1838)"/>
<path d="M100.308 29.8854H126.666V21.0588H119.425V23.2553H113.161V18.7403H118.612V13.1271H113.161V8.89683H119.425V11.0933H126.666V2.26672H100.308V8.89683H102.464V23.2553H100.308V29.8854Z" stroke="#227300" stroke-width="1.89006" mask="url(#path-1-outside-1_380_1838)"/>
<path d="M126.293 29.8854H142.319V24.0688H139.391L144.068 19.4725L149.153 24.0688H146.265V29.8854H163.55V23.2553H160.784L150.9 15.1202L158.384 8.89683H162.492V2.26672H146.18V8.08332H148.539L144.471 12.1102L139.834 8.08332H142.56V2.26672H126.456V8.89683H129.385L138.455 16.2184L129.385 23.2553H126.293V29.8854Z" stroke="#227300" stroke-width="1.89006" mask="url(#path-1-outside-1_380_1838)"/>
<path d="M7.14978 47.5205H8.96336L5.90431 40.0149H4.10165L1.0426 47.5205H2.84526L3.32597 46.3406H6.66907L7.14978 47.5205ZM3.88315 44.9749L4.99752 42.2327L6.11189 44.9749H3.88315ZM18.3806 47.5205H21.0682C23.5919 47.5205 25.3837 45.9582 25.3837 43.7622C25.3837 41.5663 23.5919 40.0149 21.0682 40.0149H18.3806V47.5205ZM19.9866 46.0565V41.4789H21.2758C22.707 41.4789 23.723 42.4294 23.723 43.7622C23.723 45.106 22.707 46.0565 21.2758 46.0565H19.9866ZM35.1589 47.5205H36.7649V42.8445L39.092 47.0835L41.4081 42.8445V47.5205H43.025V40.0149H41.4081L39.092 44.2539L36.7649 40.0149H35.1589V47.5205ZM53.0564 47.5205H54.6733V40.0149H53.0564V47.5205ZM64.7038 47.5205H66.3098V42.6697L69.9261 47.5205H71.543V40.0149H69.9261V44.8657L66.3098 40.0149H64.7038V47.5205ZM93.0843 47.5205H94.6903V45.0842H96.4602C98.088 45.0842 99.2898 44.0354 99.2898 42.5495C99.2898 41.0637 98.088 40.0149 96.4602 40.0149H93.0843V47.5205ZM94.6903 43.6093V41.4898H96.2854C97.0829 41.4898 97.6292 41.905 97.6292 42.5495C97.6292 43.1941 97.0829 43.6093 96.2854 43.6093H94.6903ZM114.27 47.5205H116.084L113.024 40.0149H111.222L108.163 47.5205H109.965L110.446 46.3406H113.789L114.27 47.5205ZM111.003 44.9749L112.118 42.2327L113.232 44.9749H111.003ZM125.501 47.5205H127.107V42.6697L130.723 47.5205H132.34V40.0149H130.723V44.8657L127.107 40.0149H125.501V47.5205ZM148.142 41.468V40.0149H142.363V47.5205H148.142V46.0675H143.98V44.4178H147.749V42.9647H143.98V41.468H148.142ZM159.391 46.0675V40.0149H157.774V47.5205H163.128V46.0675H159.391Z" fill="white"/>
</svg>
