<svg  viewBox="0 0 24 24" fill="none" xmlns="http://www.w3.org/2000/svg">
<path fill-rule="evenodd" clip-rule="evenodd" d="M12 12.9999C12.5522 12.9999 13 12.5522 13 11.9999C13 11.4477 12.5522 10.9999 12 10.9999C11.4477 10.9999 11 11.4477 11 11.9999C11 12.5522 11.4477 12.9999 12 12.9999Z" stroke="black" stroke-width="2" stroke-linecap="round" stroke-linejoin="round"/>
<path fill-rule="evenodd" clip-rule="evenodd" d="M12 6C12.5522 6 13 5.55228 13 5C13 4.44772 12.5522 4 12 4C11.4477 4 11 4.44772 11 5C11 5.55228 11.4477 6 12 6Z" stroke="black" stroke-width="2" stroke-linecap="round" stroke-linejoin="round"/>
<path fill-rule="evenodd" clip-rule="evenodd" d="M12 19.9999C12.5522 19.9999 13 19.5522 13 18.9999C13 18.4477 12.5522 17.9999 12 17.9999C11.4477 17.9999 11 18.4477 11 18.9999C11 19.5522 11.4477 19.9999 12 19.9999Z" stroke="black" stroke-width="2" stroke-linecap="round" stroke-linejoin="round"/>
</svg>
