<svg width="50" height="50" viewBox="0 0 50 50" fill="none" xmlns="http://www.w3.org/2000/svg">
<rect width="50" height="50" rx="2" fill="#F5F5F5"/>
<path opacity="0.67" fill-rule="evenodd" clip-rule="evenodd" d="M34.0201 21.4233L28.9548 16.0515C28.7793 15.8667 28.5314 15.7144 28.2769 15.7144H17.5519C16.5259 15.7144 15.7143 16.6429 15.7143 17.6681V24.1681C15.7143 24.6806 16.1201 25.0001 16.6336 25.0001H16.6373C17.1508 25.0001 17.5714 24.6806 17.5714 24.1681V18.5966C17.5714 18.0841 17.9679 17.5715 18.4814 17.5715H26.8571V21.3824C26.8571 22.4084 27.6687 23.1429 28.6957 23.1429H32.4286V24.1681C32.4286 24.6806 32.8343 25.0001 33.3478 25.0001H33.3516C33.8651 25.0001 34.2857 24.6806 34.2857 24.1681V22.063C34.2857 21.8244 34.1845 21.596 34.0201 21.4233ZM19.4091 29.7395C19.4091 29.4932 19.3112 29.2571 19.1371 29.083C18.9629 28.9088 18.7268 28.8109 18.4805 28.8109H17.5519V30.6681H18.4805C18.7268 30.6681 18.9629 30.5703 19.1371 30.3961C19.3112 30.222 19.4091 29.9858 19.4091 29.7395ZM21.2625 29.4925C21.2827 29.8704 21.2257 30.2485 21.095 30.6037C20.9643 30.9589 20.7627 31.2836 20.5024 31.5583C20.2421 31.833 19.9286 32.052 19.581 32.2016C19.2334 32.3512 18.8589 32.4284 18.4805 32.4286H17.5714V33.4538C17.5714 33.9664 17.1508 34.2858 16.6373 34.2858H16.6327C16.1201 34.2858 15.7143 33.9664 15.7143 33.4538V27.8824C15.7143 27.3698 16.1108 26.8572 16.6243 26.8572H18.3236C19.8316 26.8572 21.1836 27.9864 21.2625 29.4925ZM25.9286 29.7395C25.9286 29.2269 25.4931 28.7144 24.9814 28.7144H24.0714V32.4286H24.9814C25.4931 32.4286 25.9286 32.1092 25.9286 31.5966V29.7395ZM27.7857 29.6429V31.5001C27.7857 33.0322 26.5321 34.2858 25 34.2858H23.0453C22.9361 34.2858 22.828 34.2642 22.7271 34.2224C22.6262 34.1806 22.5346 34.1193 22.4574 34.0421C22.3802 33.9648 22.319 33.873 22.2773 33.7721C22.2356 33.6711 22.2142 33.563 22.2143 33.4538V27.7663C22.2143 27.2639 22.621 26.8572 23.1243 26.8572H25C26.5321 26.8572 27.7857 28.1108 27.7857 29.6429ZM34.2857 27.8099V27.8341C34.2857 28.3466 33.8502 28.7144 33.3386 28.7144H30.5714V30.5715H33.3386C33.5892 30.5763 33.8282 30.6784 34.0049 30.8562C34.1817 31.034 34.2824 31.2735 34.2857 31.5242V31.5484C34.2857 32.0609 33.8502 32.4286 33.3386 32.4286H30.5714V33.4538C30.5714 33.9664 30.1508 34.2858 29.6373 34.2858H29.6327C29.1201 34.2858 28.7143 33.9664 28.7143 33.4538V27.8824C28.7143 27.3698 29.1108 26.8572 29.6243 26.8572H33.3386C33.5892 26.862 33.8282 26.9642 34.0049 27.1419C34.1817 27.3197 34.2824 27.5592 34.2857 27.8099Z" fill="black"/>
</svg>
