<svg width="14" height="14" viewBox="0 0 14 14" fill="none" xmlns="http://www.w3.org/2000/svg">
<g clip-path="url(#clip0_455_2315)">
<path d="M2.55556 0.888834L5.88889 0.888834L5.88889 4.22217" stroke="white" stroke-width="1.00402" stroke-linecap="round" stroke-linejoin="round"/>
<path d="M8.66667 2.28313C9.68885 2.64426 10.566 3.32782 11.1658 4.23082C11.7657 5.13381 12.0559 6.20732 11.9926 7.28956C11.9292 8.3718 11.5159 9.40415 10.8148 10.231C10.1137 11.0579 9.16291 11.6346 8.10559 11.874C7.04828 12.1135 5.94178 12.0029 4.95282 11.5588C3.96387 11.1147 3.14604 10.3612 2.62258 9.41182C2.09913 8.46248 1.8984 7.36872 2.05064 6.29537C2.20289 5.22202 2.69986 4.22723 3.46667 3.4609L5.88889 0.888682" stroke="white" stroke-width="1.00402" stroke-linecap="round" stroke-linejoin="round"/>
</g>
<defs>
<clipPath id="clip0_455_2315">
<rect width="13.3333" height="13.3333" fill="white" transform="translate(0.333336 13.6665) rotate(-90)"/>
</clipPath>
</defs>
</svg>
