<svg width="18" height="18" viewBox="0 0 18 18" fill="none" xmlns="http://www.w3.org/2000/svg">
<rect width="18" height="18" rx="2" fill="#C96122"/>
<path d="M14 13.2222C14 13.4285 13.8946 13.6263 13.7071 13.7722C13.5196 13.9181 13.2652 14 13 14H5C4.73478 14 4.48043 13.9181 4.29289 13.7722C4.10536 13.6263 4 13.4285 4 13.2222V7.77778C4 7.5715 4.10536 7.37367 4.29289 7.22781C4.48043 7.08194 4.73478 7 5 7H7.5L8.5 8.16667H13C13.2652 8.16667 13.5196 8.24861 13.7071 8.39447C13.8946 8.54033 14 8.73816 14 8.94444V13.2222Z" stroke="white" stroke-linecap="round" stroke-linejoin="round"/>
<path d="M6.5 5L7.4331 4.0669C7.76437 3.73563 8.28123 3.67875 8.67662 3.93005L12.72 6.5" stroke="white" stroke-linecap="round"/>
</svg>
