<svg width="18" height="18" viewBox="0 0 18 18" fill="none" xmlns="http://www.w3.org/2000/svg">
<rect width="18" height="18" rx="2" fill="#941A76"/>
<path d="M10 4H6C5.73478 4 5.48043 4.10536 5.29289 4.29289C5.10536 4.48043 5 4.73478 5 5V13C5 13.2652 5.10536 13.5196 5.29289 13.7071C5.48043 13.8946 5.73478 14 6 14H12C12.2652 14 12.5196 13.8946 12.7071 13.7071C12.8946 13.5196 13 13.2652 13 13V7L10 4Z" stroke="white" stroke-linecap="round" stroke-linejoin="round"/>
<path d="M10 4V7H13" stroke="white" stroke-linecap="round" stroke-linejoin="round"/>
<path d="M11 9.5H7" stroke="white" stroke-linecap="round" stroke-linejoin="round"/>
<path d="M11 11.5H7" stroke="white" stroke-linecap="round" stroke-linejoin="round"/>
<path d="M8 7.5H7.5H7" stroke="white" stroke-linecap="round" stroke-linejoin="round"/>
</svg>
