<svg width="18" height="18" viewBox="0 0 18 18" fill="none" xmlns="http://www.w3.org/2000/svg">
<rect width="18" height="18" fill="#C96122"/>
<path d="M10.535 8.632C11.047 8.736 11.459 8.98 11.771 9.364C12.091 9.748 12.251 10.196 12.251 10.708C12.251 11.412 12.015 11.972 11.543 12.388C11.071 12.796 10.387 13 9.49102 13H6.11902V4.528H9.43102C10.279 4.528 10.927 4.72 11.375 5.104C11.831 5.48 12.059 6 12.059 6.664C12.059 7.2 11.919 7.636 11.639 7.972C11.359 8.3 10.991 8.52 10.535 8.632ZM7.48702 8.176H9.17902C9.65902 8.176 10.023 8.064 10.271 7.84C10.527 7.616 10.655 7.304 10.655 6.904C10.655 6.512 10.527 6.204 10.271 5.98C10.023 5.756 9.64302 5.644 9.13102 5.644H7.48702V8.176ZM9.21502 11.872C9.73502 11.872 10.135 11.756 10.415 11.524C10.703 11.284 10.847 10.952 10.847 10.528C10.847 10.104 10.703 9.772 10.415 9.532C10.127 9.292 9.72302 9.172 9.20302 9.172H7.48702V11.872H9.21502Z" fill="white"/>
</svg>
