<svg width="18" height="18" viewBox="0 0 18 18" fill="none" xmlns="http://www.w3.org/2000/svg">
<rect width="18" height="18" fill="#178367"/>
<path d="M12.7758 8.752C12.7758 9.608 12.5998 10.356 12.2478 10.996C11.9038 11.628 11.3958 12.12 10.7238 12.472C10.0598 12.824 9.26378 13 8.33578 13H5.50378V4.528H8.33578C9.26378 4.528 10.0598 4.704 10.7238 5.056C11.3958 5.4 11.9038 5.888 12.2478 6.52C12.5998 7.152 12.7758 7.896 12.7758 8.752ZM8.22778 11.764C9.24378 11.764 10.0238 11.5 10.5678 10.972C11.1118 10.444 11.3838 9.704 11.3838 8.752C11.3838 7.8 11.1118 7.06 10.5678 6.532C10.0238 6.004 9.24378 5.74 8.22778 5.74H6.87178V11.764H8.22778Z" fill="white"/>
</svg>
