<svg width="18" height="18" viewBox="0 0 18 18" fill="none" xmlns="http://www.w3.org/2000/svg">
<rect width="18" height="18" fill="#941A76"/>
<path d="M9.06338 4.456C10.0714 4.456 10.9114 4.704 11.5834 5.2C12.2554 5.696 12.6994 6.372 12.9154 7.228H11.4754C11.2914 6.772 10.9874 6.408 10.5634 6.136C10.1474 5.864 9.65138 5.728 9.07538 5.728C8.54738 5.728 8.07138 5.852 7.64738 6.1C7.23138 6.348 6.90338 6.7 6.66338 7.156C6.43138 7.612 6.31538 8.148 6.31538 8.764C6.31538 9.412 6.43538 9.968 6.67538 10.432C6.91538 10.896 7.25138 11.252 7.68338 11.5C8.12338 11.74 8.63138 11.86 9.20738 11.86C9.91138 11.86 10.5154 11.644 11.0194 11.212C11.5234 10.772 11.8274 10.172 11.9314 9.412H8.82338V8.404H13.0834V9.712C12.9874 10.336 12.7634 10.904 12.4114 11.416C12.0674 11.92 11.6074 12.324 11.0314 12.628C10.4634 12.932 9.81138 13.084 9.07538 13.084C8.25138 13.084 7.52338 12.9 6.89138 12.532C6.25938 12.164 5.77138 11.656 5.42738 11.008C5.08338 10.352 4.91138 9.604 4.91138 8.764C4.91138 7.924 5.08338 7.18 5.42738 6.532C5.77138 5.876 6.25538 5.368 6.87938 5.008C7.51138 4.64 8.23938 4.456 9.06338 4.456Z" fill="white"/>
</svg>
