<svg width="21" height="20" viewBox="0 0 21 20" fill="none" xmlns="http://www.w3.org/2000/svg">
<path d="M2.50195 5H4.16862H17.502" stroke="#FF4242" stroke-width="1.5" stroke-linecap="round" stroke-linejoin="round"/>
<path d="M15.8356 4.99984V16.6665C15.8356 17.1085 15.66 17.5325 15.3475 17.845C15.0349 18.1576 14.611 18.3332 14.1689 18.3332H5.83561C5.39358 18.3332 4.96966 18.1576 4.6571 17.845C4.34454 17.5325 4.16895 17.1085 4.16895 16.6665V4.99984M6.66895 4.99984V3.33317C6.66895 2.89114 6.84454 2.46722 7.1571 2.15466C7.46966 1.8421 7.89358 1.6665 8.33561 1.6665H11.6689C12.111 1.6665 12.5349 1.8421 12.8475 2.15466C13.16 2.46722 13.3356 2.89114 13.3356 3.33317V4.99984" stroke="#FF4242" stroke-width="1.5" stroke-linecap="round" stroke-linejoin="round"/>
</svg>
