<svg width="19" height="18" viewBox="0 0 19 18" fill="none" xmlns="http://www.w3.org/2000/svg">
<path d="M2.51648 4.5H4.03296H16.1648" stroke="#FF4242" stroke-linecap="round" stroke-linejoin="round"/>
<path d="M14.6484 4.5V15C14.6484 15.3978 14.4886 15.7794 14.2042 16.0607C13.9198 16.342 13.5341 16.5 13.1319 16.5H5.54946C5.14726 16.5 4.76154 16.342 4.47714 16.0607C4.19275 15.7794 4.03297 15.3978 4.03297 15V4.5M6.3077 4.5V3C6.3077 2.60218 6.46747 2.22064 6.75187 1.93934C7.03626 1.65804 7.42199 1.5 7.82418 1.5H10.8571C11.2593 1.5 11.6451 1.65804 11.9295 1.93934C12.2139 2.22064 12.3736 2.60218 12.3736 3V4.5" stroke="#FF4242" stroke-linecap="round" stroke-linejoin="round"/>
</svg>
