<svg width="14" height="14" viewBox="0 0 14 14" fill="none" xmlns="http://www.w3.org/2000/svg">
<g clip-path="url(#clip0_455_2320)">
<path d="M1.99998 3.66699H3.1111H12" stroke="#FF4242" stroke-width="1.00402" stroke-linecap="round" stroke-linejoin="round"/>
<path d="M10.8889 3.66705V11.4448C10.8889 11.7395 10.7718 12.0221 10.5634 12.2305C10.3551 12.4389 10.0725 12.5559 9.77777 12.5559H4.22221C3.92753 12.5559 3.64491 12.4389 3.43654 12.2305C3.22816 12.0221 3.1111 11.7395 3.1111 11.4448V3.66705M4.77777 3.66705V2.55594C4.77777 2.26125 4.89483 1.97863 5.1032 1.77026C5.31158 1.56189 5.59419 1.44482 5.88888 1.44482H8.1111C8.40579 1.44482 8.6884 1.56189 8.89677 1.77026C9.10515 1.97863 9.22221 2.26125 9.22221 2.55594V3.66705" stroke="#FF4242" stroke-width="1.00402" stroke-linecap="round" stroke-linejoin="round"/>
</g>
<defs>
<clipPath id="clip0_455_2320">
<rect width="13.3333" height="13.3333" fill="white" transform="translate(0.333328 0.333496)"/>
</clipPath>
</defs>
</svg>
