<svg width="24" height="25" viewBox="0 0 24 25" fill="none" xmlns="http://www.w3.org/2000/svg">
<path d="M3 6.58154H5H21" stroke="#FF4242" stroke-width="1.5" stroke-linecap="round" stroke-linejoin="round"/>
<path d="M19 6.58154V20.5815C19 21.112 18.7893 21.6207 18.4142 21.9958C18.0391 22.3708 17.5304 22.5815 17 22.5815H7C6.46957 22.5815 5.96086 22.3708 5.58579 21.9958C5.21071 21.6207 5 21.112 5 20.5815V6.58154M8 6.58154V4.58154C8 4.05111 8.21071 3.5424 8.58579 3.16733C8.96086 2.79226 9.46957 2.58154 10 2.58154H14C14.5304 2.58154 15.0391 2.79226 15.4142 3.16733C15.7893 3.5424 16 4.05111 16 4.58154V6.58154" stroke="#FF4242" stroke-width="1.5" stroke-linecap="round" stroke-linejoin="round"/>
</svg>
